<?xml version="1.0" encoding="UTF-8"?>
<svg xmlns="http://www.w3.org/2000/svg" xml:space="preserve" width="800" fill-rule="evenodd" stroke-linejoin="round" stroke-width="28.222" preserveAspectRatio="xMidYMid" version="1.2" viewBox="2000 8500 17000 12500" ><defs class="ClipPathGroup"><clipPath id="a" clipPathUnits="userSpaceOnUse"><path d="M0 0h21000v29700H0z"/></clipPath></defs><g class="SlideGroup"><g class="Slide" clip-path="url(#a)"><g class="Page"><g class="OLE2"><path fill="none" d="M2478 8816h16001v12001H2478z" class="BoundingBox"/><defs><clipPath id="b" clipPathUnits="userSpaceOnUse"><path d="M2487 8811h15981v12012H2487V8811Z"/></clipPath></defs><defs><clipPath id="c" clipPathUnits="userSpaceOnUse"><path d="M2487 8811h15981v12012H2487V8811Z"/></clipPath></defs><g clip-path="url(#c)"><path fill="#FFF" d="M10479 20817H2478V8816h16001v12001h-8000Z"/><path fill="none" stroke="#B3B3B3" d="M10477 19712H3789V9854h13375v9858h-6687Z"/><path fill="none" stroke="#000" d="M17163 19711H3788M17163 18814H3788M17163 17918H3788M17163 17022H3788M17163 16126H3788M17163 15230H3788M17163 14333H3788M17163 13437H3788M17163 12541H3788M17163 11645H3788M17163 10749H3788M17163 9852H3788M3788 19861v-150M3788 19861v-150M6018 19861v-150M6018 19861v-150M8247 19861v-150M8247 19861v-150M10476 19861v-150M10476 19861v-150M12705 19861v-150M12705 19861v-150M14934 19861v-150M14934 19861v-150M17163 19861v-150M17163 19861v-150M3788 19711h13375M3638 19711h150M3638 19711h150M3638 18814h150M3638 18814h150M3638 17918h150M3638 17918h150M3638 17022h150M3638 17022h150M3638 16126h150M3638 16126h150M3638 15230h150M3638 15230h150M3638 14333h150M3638 14333h150M3638 13437h150M3638 13437h150M3638 12541h150M3638 12541h150M3638 11645h150M3638 11645h150M3638 10749h150M3638 10749h150M3638 9852h150M3638 9852h150M3788 19711V9852M17313 19711h-150M17313 19711h-150M17313 18814h-150M17313 18814h-150M17313 17918h-150M17313 17918h-150M17313 17022h-150M17313 17022h-150M17313 16126h-150M17313 16126h-150M17313 15230h-150M17313 15230h-150M17313 14333h-150M17313 14333h-150M17313 13437h-150M17313 13437h-150M17313 12541h-150M17313 12541h-150M17313 11645h-150M17313 11645h-150M17313 10749h-150M17313 10749h-150M17313 9852h-150M17313 9852h-150M17163 19711V9852"/><path fill="#004586" d="M4778 14119v250h250v-250h-250Z"/><path fill="none" stroke="#004586" d="M4778 14119v250h250v-250h-250Z"/><path fill="#004586" d="M5893 13850v250h250v-250h-250Z"/><path fill="none" stroke="#004586" d="M5893 13850v250h250v-250h-250Z"/><path fill="#004586" d="M7007 14096v250h250v-250h-250Z"/><path fill="none" stroke="#004586" d="M7007 14096v250h250v-250h-250Z"/><path fill="#004586" d="M8122 14141v250h250v-250h-250Z"/><path fill="none" stroke="#004586" d="M8122 14141v250h250v-250h-250Z"/><path fill="#004586" d="M9236 13760v250h250v-250h-250Z"/><path fill="none" stroke="#004586" d="M9236 13760v250h250v-250h-250Z"/><path fill="#004586" d="M10351 13738v250h250v-250h-250Z"/><path fill="none" stroke="#004586" d="M10351 13738v250h250v-250h-250Z"/><path fill="#004586" d="M11466 13532v250h250v-250h-250Z"/><path fill="none" stroke="#004586" d="M11466 13532v250h250v-250h-250Z"/><path fill="#004586" d="M12580 13742v250h250v-250h-250Z"/><path fill="none" stroke="#004586" d="M12580 13742v250h250v-250h-250Z"/><path fill="#004586" d="M13695 13716v250h250v-250h-250Z"/><path fill="none" stroke="#004586" d="M13695 13716v250h250v-250h-250Z"/><path fill="#004586" d="M14809 13483v250h250v-250h-250Z"/><path fill="none" stroke="#004586" d="M14809 13483v250h250v-250h-250Z"/><path fill="#004586" d="M15924 13438v250h250v-250h-250Z"/><path fill="none" stroke="#004586" d="M15924 13438v250h250v-250h-250Z"/><path fill="#004586" d="M16816 13626v250h250v-250h-250Z"/><path fill="none" stroke="#004586" d="M16816 13626v250h250v-250h-250Z"/><path fill="#FF420E" d="M4332 19456v250h250v-250h-250Z"/><path fill="none" stroke="#FF420E" d="M4332 19456v250h250v-250h-250Z"/><path fill="#FF420E" d="M8122 18120v250h250v-250h-250Z"/><path fill="none" stroke="#FF420E" d="M8122 18120v250h250v-250h-250Z"/><path fill="#FF420E" d="M9236 16727v250h250v-250h-250Z"/><path fill="none" stroke="#FF420E" d="M9236 16727v250h250v-250h-250Z"/><path fill="#FF420E" d="M10351 15974v250h250v-250h-250Z"/><path fill="none" stroke="#FF420E" d="M10351 15974v250h250v-250h-250Z"/><path fill="#FF420E" d="M11466 14625v250h250v-250h-250Z"/><path fill="none" stroke="#FF420E" d="M11466 14625v250h250v-250h-250Z"/><path fill="#FF420E" d="M12580 13724v250h250v-250h-250Z"/><path fill="none" stroke="#FF420E" d="M12580 13724v250h250v-250h-250Z"/><path fill="#FF420E" d="M13695 11847v250h250v-250h-250Z"/><path fill="none" stroke="#FF420E" d="M13695 11847v250h250v-250h-250Z"/><path fill="#C9211E" d="M14809 11542v250h250v-250h-250Z"/><path fill="none" stroke="#C9211E" d="M14809 11542v250h250v-250h-250Z"/><path fill="#C9211E" d="M15924 10642v250h250v-250h-250Z"/><path fill="none" stroke="#C9211E" d="M15924 10642v250h250v-250h-250Z"/><path fill="#C9211E" d="M16816 9987v250h250v-250h-250Z"/><path fill="none" stroke="#C9211E" d="M16816 9987v250h250v-250h-250Z"/><text class="SVGTextShape"><tspan class="TextParagraph"><tspan x="3298" y="20358" class="TextPosition"><tspan font-family="Liberation Sans, sans-serif" font-size="459" font-weight="400" style="white-space:pre">1965</tspan></tspan></tspan></text><text class="SVGTextShape"><tspan class="TextParagraph"><tspan x="5528" y="20358" class="TextPosition"><tspan font-family="Liberation Sans, sans-serif" font-size="459" font-weight="400" style="white-space:pre">1975</tspan></tspan></tspan></text><text class="SVGTextShape"><tspan class="TextParagraph"><tspan x="7757" y="20358" class="TextPosition"><tspan font-family="Liberation Sans, sans-serif" font-size="459" font-weight="400" style="white-space:pre">1985</tspan></tspan></tspan></text><text class="SVGTextShape"><tspan class="TextParagraph"><tspan x="9986" y="20358" class="TextPosition"><tspan font-family="Liberation Sans, sans-serif" font-size="459" font-weight="400" style="white-space:pre">1995</tspan></tspan></tspan></text><text class="SVGTextShape"><tspan class="TextParagraph"><tspan x="12215" y="20358" class="TextPosition"><tspan font-family="Liberation Sans, sans-serif" font-size="459" font-weight="400" style="white-space:pre">2005</tspan></tspan></tspan></text><text class="SVGTextShape"><tspan class="TextParagraph"><tspan x="14444" y="20358" class="TextPosition"><tspan font-family="Liberation Sans, sans-serif" font-size="459" font-weight="400" style="white-space:pre">2015</tspan></tspan></tspan></text><text class="SVGTextShape"><tspan class="TextParagraph"><tspan x="16673" y="20358" class="TextPosition"><tspan font-family="Liberation Sans, sans-serif" font-size="459" font-weight="400" style="white-space:pre">2025</tspan></tspan></tspan></text><text class="SVGTextShape"><tspan class="TextParagraph"><tspan x="2612" y="19856" class="TextPosition"><tspan font-family="Liberation Sans, sans-serif" font-size="423" font-weight="400" style="white-space:pre">1500</tspan></tspan></tspan></text><text class="SVGTextShape"><tspan class="TextParagraph"><tspan x="2612" y="18959" class="TextPosition"><tspan font-family="Liberation Sans, sans-serif" font-size="423" font-weight="400" style="white-space:pre">1700</tspan></tspan></tspan></text><text class="SVGTextShape"><tspan class="TextParagraph"><tspan x="2612" y="18063" class="TextPosition"><tspan font-family="Liberation Sans, sans-serif" font-size="423" font-weight="400" style="white-space:pre">1900</tspan></tspan></tspan></text><text class="SVGTextShape"><tspan class="TextParagraph"><tspan x="2612" y="17167" class="TextPosition"><tspan font-family="Liberation Sans, sans-serif" font-size="423" font-weight="400" style="white-space:pre">2100</tspan></tspan></tspan></text><text class="SVGTextShape"><tspan class="TextParagraph"><tspan x="2612" y="16271" class="TextPosition"><tspan font-family="Liberation Sans, sans-serif" font-size="423" font-weight="400" style="white-space:pre">2300</tspan></tspan></tspan></text><text class="SVGTextShape"><tspan class="TextParagraph"><tspan x="2612" y="15375" class="TextPosition"><tspan font-family="Liberation Sans, sans-serif" font-size="423" font-weight="400" style="white-space:pre">2500</tspan></tspan></tspan></text><text class="SVGTextShape"><tspan class="TextParagraph"><tspan x="2612" y="14478" class="TextPosition"><tspan font-family="Liberation Sans, sans-serif" font-size="423" font-weight="400" style="white-space:pre">2700</tspan></tspan></tspan></text><text class="SVGTextShape"><tspan class="TextParagraph"><tspan x="2612" y="13582" class="TextPosition"><tspan font-family="Liberation Sans, sans-serif" font-size="423" font-weight="400" style="white-space:pre">2900</tspan></tspan></tspan></text><text class="SVGTextShape"><tspan class="TextParagraph"><tspan x="2612" y="12686" class="TextPosition"><tspan font-family="Liberation Sans, sans-serif" font-size="423" font-weight="400" style="white-space:pre">3100</tspan></tspan></tspan></text><text class="SVGTextShape"><tspan class="TextParagraph"><tspan x="2612" y="11790" class="TextPosition"><tspan font-family="Liberation Sans, sans-serif" font-size="423" font-weight="400" style="white-space:pre">3300</tspan></tspan></tspan></text><text class="SVGTextShape"><tspan class="TextParagraph"><tspan x="2612" y="10894" class="TextPosition"><tspan font-family="Liberation Sans, sans-serif" font-size="423" font-weight="400" style="white-space:pre">3500</tspan></tspan></tspan></text><text class="SVGTextShape"><tspan class="TextParagraph"><tspan x="2612" y="9997" class="TextPosition"><tspan font-family="Liberation Sans, sans-serif" font-size="423" font-weight="400" style="white-space:pre">3700</tspan></tspan></tspan></text><text class="SVGTextShape"><tspan class="TextParagraph"><tspan x="17413" y="19856" class="TextPosition"><tspan font-family="Liberation Sans, sans-serif" font-size="423" font-weight="400" style="white-space:pre">1500</tspan></tspan></tspan></text><text class="SVGTextShape"><tspan class="TextParagraph"><tspan x="17413" y="18959" class="TextPosition"><tspan font-family="Liberation Sans, sans-serif" font-size="423" font-weight="400" style="white-space:pre">1700</tspan></tspan></tspan></text><text class="SVGTextShape"><tspan class="TextParagraph"><tspan x="17413" y="18063" class="TextPosition"><tspan font-family="Liberation Sans, sans-serif" font-size="423" font-weight="400" style="white-space:pre">1900</tspan></tspan></tspan></text><text class="SVGTextShape"><tspan class="TextParagraph"><tspan x="17413" y="17167" class="TextPosition"><tspan font-family="Liberation Sans, sans-serif" font-size="423" font-weight="400" style="white-space:pre">2100</tspan></tspan></tspan></text><text class="SVGTextShape"><tspan class="TextParagraph"><tspan x="17413" y="16271" class="TextPosition"><tspan font-family="Liberation Sans, sans-serif" font-size="423" font-weight="400" style="white-space:pre">2300</tspan></tspan></tspan></text><text class="SVGTextShape"><tspan class="TextParagraph"><tspan x="17413" y="15375" class="TextPosition"><tspan font-family="Liberation Sans, sans-serif" font-size="423" font-weight="400" style="white-space:pre">2500</tspan></tspan></tspan></text><text class="SVGTextShape"><tspan class="TextParagraph"><tspan x="17413" y="14478" class="TextPosition"><tspan font-family="Liberation Sans, sans-serif" font-size="423" font-weight="400" style="white-space:pre">2700</tspan></tspan></tspan></text><text class="SVGTextShape"><tspan class="TextParagraph"><tspan x="17413" y="13582" class="TextPosition"><tspan font-family="Liberation Sans, sans-serif" font-size="423" font-weight="400" style="white-space:pre">2900</tspan></tspan></tspan></text><text class="SVGTextShape"><tspan class="TextParagraph"><tspan x="17413" y="12686" class="TextPosition"><tspan font-family="Liberation Sans, sans-serif" font-size="423" font-weight="400" style="white-space:pre">3100</tspan></tspan></tspan></text><text class="SVGTextShape"><tspan class="TextParagraph"><tspan x="17413" y="11790" class="TextPosition"><tspan font-family="Liberation Sans, sans-serif" font-size="423" font-weight="400" style="white-space:pre">3300</tspan></tspan></tspan></text><text class="SVGTextShape"><tspan class="TextParagraph"><tspan x="17413" y="10894" class="TextPosition"><tspan font-family="Liberation Sans, sans-serif" font-size="423" font-weight="400" style="white-space:pre">3500</tspan></tspan></tspan></text><text class="SVGTextShape"><tspan class="TextParagraph"><tspan x="17413" y="9997" class="TextPosition"><tspan font-family="Liberation Sans, sans-serif" font-size="423" font-weight="400" style="white-space:pre">3700</tspan></tspan></tspan></text><text class="SVGTextShape"><tspan class="TextParagraph"><tspan x="4045" y="14015" class="TextPosition"><tspan font-family="Liberation Sans, sans-serif" font-size="353" font-weight="400" style="white-space:pre">Fischer</tspan></tspan></tspan></text><text class="SVGTextShape"><tspan class="TextParagraph"><tspan x="5433" y="13765" class="TextPosition"><tspan font-family="Liberation Sans, sans-serif" font-size="353" font-weight="400" style="white-space:pre">Fischer</tspan></tspan></tspan></text><text class="SVGTextShape"><tspan class="TextParagraph"><tspan x="6715" y="13973" class="TextPosition"><tspan font-family="Liberation Sans, sans-serif" font-size="353" font-weight="400" style="white-space:pre">Karpov</tspan></tspan></tspan></text><text class="SVGTextShape"><tspan class="TextParagraph"><tspan x="7620" y="14818" class="TextPosition"><tspan font-family="Liberation Sans, sans-serif" font-size="353" font-weight="400" style="white-space:pre">Kasparov</tspan></tspan></tspan></text><text class="SVGTextShape"><tspan class="TextParagraph"><tspan x="8924" y="13581" class="TextPosition"><tspan font-family="Liberation Sans, sans-serif" font-size="353" font-weight="400" style="white-space:pre">Kasp.</tspan></tspan></tspan></text><text class="SVGTextShape"><tspan class="TextParagraph"><tspan x="9941" y="13690" class="TextPosition"><tspan font-family="Liberation Sans, sans-serif" font-size="353" font-weight="400" style="white-space:pre">Kasp.</tspan></tspan></tspan></text><text class="SVGTextShape"><tspan class="TextParagraph"><tspan x="11056" y="13484" class="TextPosition"><tspan font-family="Liberation Sans, sans-serif" font-size="353" font-weight="400" style="white-space:pre">Kasp.</tspan></tspan></tspan></text><text class="SVGTextShape"><tspan class="TextParagraph"><tspan x="11892" y="13694" class="TextPosition"><tspan font-family="Liberation Sans, sans-serif" font-size="353" font-weight="400" style="white-space:pre">Kasparov</tspan></tspan></tspan></text><text class="SVGTextShape"><tspan class="TextParagraph"><tspan x="13988" y="14205" class="TextPosition"><tspan font-family="Liberation Sans, sans-serif" font-size="353" font-weight="400" style="white-space:pre">Carlsen</tspan></tspan></tspan></text><text class="SVGTextShape"><tspan class="TextParagraph"><tspan x="14333" y="13286" class="TextPosition"><tspan font-family="Liberation Sans, sans-serif" font-size="353" font-weight="400" style="white-space:pre">Carlsen</tspan></tspan></tspan></text><text class="SVGTextShape"><tspan class="TextParagraph"><tspan x="15554" y="13287" class="TextPosition"><tspan font-family="Liberation Sans, sans-serif" font-size="353" font-weight="400" style="white-space:pre">Carlsen</tspan></tspan></tspan></text><text class="SVGTextShape"><tspan class="TextParagraph"><tspan x="15658" y="14209" class="TextPosition"><tspan font-family="Liberation Sans, sans-serif" font-size="353" font-weight="400" style="white-space:pre">Carlsen</tspan></tspan></tspan></text><text class="SVGTextShape"><tspan class="TextParagraph"><tspan x="4323" y="19291" class="TextPosition"><tspan font-family="Liberation Sans, sans-serif" font-size="353" font-weight="400" style="white-space:pre">Mac Hack 6</tspan></tspan></tspan></text><text class="SVGTextShape"><tspan class="TextParagraph"><tspan x="8481" y="18379" class="TextPosition"><tspan font-family="Liberation Sans, sans-serif" font-size="353" font-weight="400" style="white-space:pre">Mephisto A</tspan></tspan></tspan></text><text class="SVGTextShape"><tspan class="TextParagraph"><tspan x="9663" y="16972" class="TextPosition"><tspan font-family="Liberation Sans, sans-serif" font-size="353" font-weight="400" style="white-space:pre">Mephisto P</tspan></tspan></tspan></text><text class="SVGTextShape"><tspan class="TextParagraph"><tspan x="10693" y="16073" class="TextPosition"><tspan font-family="Liberation Sans, sans-serif" font-size="353" font-weight="400" style="white-space:pre">MChess 5</tspan></tspan></tspan></text><text class="SVGTextShape"><tspan class="TextParagraph"><tspan x="11797" y="14871" class="TextPosition"><tspan font-family="Liberation Sans, sans-serif" font-size="353" font-weight="400" style="white-space:pre">Fritz 6</tspan></tspan></tspan></text><text class="SVGTextShape"><tspan class="TextParagraph"><tspan x="11831" y="14288" class="TextPosition"><tspan font-family="Liberation Sans, sans-serif" font-size="353" font-weight="400" style="white-space:pre">Shredder 9</tspan></tspan></tspan></text><text class="SVGTextShape"><tspan class="TextParagraph"><tspan x="12337" y="12159" class="TextPosition"><tspan font-family="Liberation Sans, sans-serif" font-size="353" font-weight="400" style="white-space:pre">Rybka 3</tspan></tspan></tspan></text><text class="SVGTextShape"><tspan class="TextParagraph"><tspan x="14057" y="11377" class="TextPosition"><tspan font-family="Liberation Sans, sans-serif" font-size="353" font-weight="400" style="white-space:pre">Komodo 7</tspan></tspan></tspan></text><text class="SVGTextShape"><tspan class="TextParagraph"><tspan x="13571" y="10661" class="TextPosition"><tspan font-family="Liberation Sans, sans-serif" font-size="353" font-weight="400" style="white-space:pre">Stockfish 2019</tspan></tspan></tspan></text><text class="SVGTextShape"><tspan class="TextParagraph"><tspan x="14435" y="10206" class="TextPosition"><tspan font-family="Liberation Sans, sans-serif" font-size="353" font-weight="400" style="white-space:pre">Stockfish 2023</tspan></tspan></tspan></text><path fill="none" stroke="#000" d="M8247 14140v359M13820 13715l168 171M16941 13625l-117 265M8247 18119h234M9361 16726h302M10476 15973h217M11591 14624h206M12705 13723v246M13820 11846h-237M16049 10641h-227M16941 9986h-255"/><text class="SVGTextShape"><tspan class="TextParagraph"><tspan x="5594" y="9491" class="TextPosition"><tspan font-family="Liberation Sans, sans-serif" font-size="564" font-weight="400" style="white-space:pre">Puntuación ELO (humanos y máquinas)</tspan></tspan></tspan></text><text class="SVGTextShape"><tspan class="TextParagraph"><tspan x="2656" y="9352" class="TextPosition"><tspan font-family="Liberation Sans, sans-serif" font-size="459" font-weight="400" style="white-space:pre">puntos</tspan></tspan></tspan></text><text class="SVGTextShape"><tspan class="TextParagraph"><tspan x="17065" y="9313" class="TextPosition"><tspan font-family="Liberation Sans, sans-serif" font-size="423" font-weight="400" style="white-space:pre">puntos</tspan></tspan></tspan></text></g></g></g></g></g></svg>